<?xml version="1.0" encoding="utf-8"?>
<!-- Generator: Adobe Illustrator 21.0.2, SVG Export Plug-In . SVG Version: 6.00 Build 0)  -->
<svg version="1.1" id="Layer_1" xmlns="http://www.w3.org/2000/svg" xmlns:xlink="http://www.w3.org/1999/xlink" x="0px" y="0px"
	 viewBox="0 0 65.3 52" style="enable-background:new 0 0 65.3 52;" xml:space="preserve">
<style type="text/css">
	.st0{fill:#FFFFFF;}
</style>
<g transform="translate(0,-952.36218)">
	<path class="st0" d="M6.9,958c-1,0-1.9,0.9-1.9,1.9v36c0,1,0.9,1.9,1.9,1.9h50.9c1,0,1.9-0.9,1.9-1.9v-36c0-1-0.9-1.9-1.9-1.9H6.9
		L6.9,958z M8.2,960.5h48.2L32.3,980L8.2,960.5z M7.5,963.1l24.1,19.5c0.5,0.4,1.1,0.4,1.6,0l24.1-19.5v32.2H7.5V963.1L7.5,963.1z"
		/>
</g>
</svg>
