<?xml version="1.0" encoding="utf-8"?>
<!-- Generator: Adobe Illustrator 21.0.2, SVG Export Plug-In . SVG Version: 6.00 Build 0)  -->
<svg version="1.1" id="Layer_1" xmlns="http://www.w3.org/2000/svg" xmlns:xlink="http://www.w3.org/1999/xlink" x="0px" y="0px"
	 viewBox="0 0 80.7 97.3" style="enable-background:new 0 0 80.7 97.3;" xml:space="preserve">
<style type="text/css">
	.st0{fill:#FFFFFF;}
</style>
<g>
	<g>
		<path d="M12.8,74.5c17,2.1,18.7,3.8,20.8,20.8c2.1-17,3.8-18.7,20.8-20.8c-17-2.1-18.7-3.8-20.8-20.8
			C31.4,70.7,29.7,72.4,12.8,74.5z"/>
	</g>
	<g>
		<path class="st0" d="M33.5,97.2l-0.2-1.9c-2.1-16.9-3.6-18.5-20.6-20.6l-1.9-0.2l1.9-0.2c16.9-2.1,18.5-3.6,20.6-20.6l0.2-1.9
			l0.2,1.9c2.1,16.9,3.6,18.5,20.6,20.6l1.9,0.2l-1.9,0.2c-16.9,2.1-18.5,3.6-20.6,20.6L33.5,97.2z M14.6,74.5
			c14.8,2,17,4.1,18.9,18.9c2-14.8,4.1-17,18.9-18.9c-14.8-2-17-4.1-18.9-18.9C31.6,70.4,29.4,72.6,14.6,74.5z"/>
	</g>
</g>
<g>
	<g>
		<path d="M1.8,45c10.9,1.4,12,2.4,13.4,13.4c1.4-10.9,2.4-12,13.4-13.4c-10.9-1.4-12-2.4-13.4-13.4C13.8,42.5,12.7,43.6,1.8,45z"/>
	</g>
	<g>
		<path class="st0" d="M15.1,60.2l-0.2-1.9c-1.3-10.8-2.3-11.8-13.2-13.2L-0.1,45l1.9-0.2c10.8-1.3,11.8-2.3,13.2-13.2l0.2-1.9
			l0.2,1.9c1.3,10.8,2.3,11.8,13.2,13.2l1.9,0.2l-1.9,0.2c-10.8,1.3-11.8,2.3-13.2,13.2L15.1,60.2z M3.5,45
			c8.9,1.2,10.3,2.7,11.6,11.6c1.2-8.9,2.7-10.3,11.6-11.6c-8.8-1.2-10.3-2.7-11.6-11.6C13.9,42.3,12.4,43.8,3.5,45z"/>
	</g>
</g>
<g>
	<g>
		<path d="M24.2,29.2c22.2,2.8,24.5,5,27.2,27.2c2.8-22.2,5-24.4,27.2-27.2c-22.2-2.8-24.5-5-27.2-27.2
			C48.6,24.2,46.4,26.4,24.2,29.2z"/>
	</g>
	<g>
		<path class="st0" d="M51.4,58.3l-0.2-1.9c-2.7-22-5-24.3-27-27l-1.9-0.2l1.9-0.2c22-2.7,24.3-5,27-27l0.2-1.9L51.6,2
			c2.7,22,5,24.3,27,27l1.9,0.2l-1.9,0.2c-22,2.7-24.3,5-27,27L51.4,58.3z M26,29.2c20.1,2.6,22.8,5.3,25.4,25.4
			c2.6-20.1,5.3-22.8,25.4-25.4C56.7,26.6,54,23.9,51.4,3.8C48.8,23.9,46.1,26.6,26,29.2z"/>
	</g>
</g>
</svg>
