<?xml version="1.0" encoding="utf-8"?>
<!-- Generator: Adobe Illustrator 21.0.2, SVG Export Plug-In . SVG Version: 6.00 Build 0)  -->
<svg version="1.1" id="Layer_1" xmlns="http://www.w3.org/2000/svg" xmlns:xlink="http://www.w3.org/1999/xlink" x="0px" y="0px"
	 viewBox="0 0 80.7 97.3" style="enable-background:new 0 0 80.7 97.3;" xml:space="preserve">
<style type="text/css">
	.st0{fill:#FFFFFF;}
</style>
<g>
	<path d="M57.2,63.2c-20.8,2.6-22.9,4.7-25.4,25.4c-2.6-20.8-4.7-22.9-25.4-25.4c20.8-2.6,22.9-4.7,25.4-25.4
		C34.4,58.5,36.4,60.6,57.2,63.2z"/>
</g>
<g>
	<g>
		<path d="M70.7,27C57.3,28.7,56,30,54.3,43.4C52.7,30,51.3,28.7,38,27c13.4-1.7,14.7-3,16.4-16.4C56,24,57.3,25.3,70.7,27z"/>
	</g>
	<g>
		<path class="st0" d="M54.3,45.7l-0.3-2.3c-1.6-13.3-2.8-14.5-16.1-16.1L35.7,27l2.3-0.3c13.3-1.6,14.5-2.8,16.1-16.1l0.3-2.3
			l0.3,2.3c1.6,13.3,2.8,14.5,16.1,16.1L73,27l-2.3,0.3c-13.3,1.6-14.5,2.8-16.1,16.1L54.3,45.7z M40.2,27
			c10.8,1.5,12.7,3.3,14.2,14.2c1.5-10.8,3.3-12.7,14.2-14.2c-10.8-1.5-12.7-3.3-14.2-14.2C52.8,23.7,51,25.5,40.2,27z"/>
	</g>
</g>
</svg>
