<?xml version="1.0" encoding="utf-8"?>
<!-- Generator: Adobe Illustrator 21.0.2, SVG Export Plug-In . SVG Version: 6.00 Build 0)  -->
<svg version="1.1" id="Layer_1" xmlns="http://www.w3.org/2000/svg" xmlns:xlink="http://www.w3.org/1999/xlink" x="0px" y="0px"
	 viewBox="0 0 80.7 97.3" style="enable-background:new 0 0 80.7 97.3;" xml:space="preserve">
<style type="text/css">
	.st0{fill:#FFFFFF;}
</style>
<g>
	<path d="M69.7,27.1c0,0,0.2,0.5-0.2,1c0,0-5.7,16.3-6.4,26.4c-1.6,23.9-1,26.8-1.3,27.1l-2.7,0V53.4c0,0-0.2-8.8-1.6-9.7
		c0,0-3-2.2-6,3.1c0,0-3.3,5.6-3,20.6c0,0,0.9,11.5-6.6,14.6c0,0-3.3,2.2-14,0.4c0,0-18.5-3-21-4.5c0,0-1.3-0.5-1.1-1.3
		c0,0,4.7,2,7.5,2.4c0,0,23.3,4.5,26.9,2.4c0,0,7.2-1.7,7.6-13.9c0,0-0.4-15.5,3.4-21C51,46.5,59.6,33.6,69.7,27.1z"/>
</g>
<g>
	<path d="M33.4,81.9c0,0-24.9-3.3-27.6-5.7c0,0,0,0.3,0,0.4c0,0,0,0.4,0,0.4l1.7,0.9l4.2,1.2l9.1,1.8l11.1,1.7L33.4,81.9z"/>
</g>
<g>
	<path d="M51.1,52.5c0.4-7.2,4-8.9,4.1-8.9L55,43.3c-0.2,0.1-3.8,1.8-4.2,9.2L51.1,52.5z"/>
</g>
<g>
	<path d="M48.2,73c1.9-2.3,2.9-19.4,2.9-20.2l-0.3,0c0,0.2-1,17.8-2.9,20L48.2,73z"/>
</g>
<g>
	<path d="M24.6,67.8c-0.1-0.1-1.2-1.3-0.8-2.1l0,0c0,0,1.2-0.9,3.9-1.2c0.2-0.1,1-0.4,2.6-0.5c1.7-0.2,4.3-0.6,4.8-1
		c1.5-3.7,2-8,2-8.1c0.1-5.6,0.5-8.7,0.5-8.7c2.2-13.4,7.3-20.9,9.7-24.6c0.5-0.8,0.9-1.4,1.2-1.8c1.3-2.5,5.1-7.9,5.4-8.4
		c0-0.8,0-0.9,0-0.9l0,0c0.8-0.4,1.5,0.2,1.7,0.7c0.6,0.3,4.7,2.8,4.9,3c6.4,3.7,9.1,11.3,9.2,11.8c0.3,0.4,0.2,0.9,0.1,1
		c0.1,0.2,0,0.3,0,0.4c0,0.1-0.2,0.7-0.5,0.8l-0.2-0.2c0.2-0.1,0.3-0.5,0.4-0.7c0,0,0-0.1,0-0.2l0-0.1l0-0.1c0,0,0.2-0.4-0.1-0.8
		l0,0c0-0.1-2.6-7.9-9.1-11.6c0,0-4.5-2.8-4.9-3l0,0l0,0c0,0-0.6-1-1.3-0.6c0,0.1,0,0.3,0,0.7l0,0l0,0c0,0.1-4.1,5.9-5.5,8.4
		c-0.2,0.5-0.7,1.1-1.2,1.9C45,25.3,40,32.8,37.8,46.2c0,0-0.3,3.1-0.5,8.7c0,0-0.5,4.5-2.1,8.2c-1,2.5-2.2,4.1-3.6,4.8
		c-0.1,0.1-2,1-4,1C26.6,68.8,25.5,68.6,24.6,67.8z M30.3,64.3c-1.6,0-2.5,0.5-2.5,0.5l0,0c-2.4,0.3-3.5,1-3.7,1.2
		c-0.2,0.5,0.5,1.4,0.8,1.7c2.6,2.1,6.8,0,6.8,0c1.2-0.6,2.3-2,3.3-4.2C33.7,63.9,30.7,64.2,30.3,64.3z"/>
</g>
<g>
	<path d="M5.7,77C6,76.9,6,76.4,6,76.2l0,0l0,0c-0.7-0.8-0.5-2-0.5-2l0,0l0,0c-0.5-4.1,12.9-6.3,13-6.4c0.8-0.1,4.5-1.3,4.7-1.3
		l0.1,0l0-0.1c0.7-1.8,4.6-2,4.7-2l0,0c0.9-0.3,3.7-0.6,3.9-0.6c1.6,0.1,3.6-0.9,3.7-1l-0.1-0.2c0,0-1.9,1.1-3.5,0.9l0,0l0,0
		c-0.1,0-3,0.4-3.9,0.6c-0.3,0-4.1,0.3-4.9,2.1c-0.5,0.2-3.8,1.2-4.6,1.3C17.8,67.5,4.7,69.6,5.1,74c0,0.2-0.1,1.4,0.6,2.2
		c0,0.2,0,0.4-0.1,0.4L5.7,77z"/>
</g>
<g>
	<path d="M35.1,63.2l-0.5,0.2l-1,0.3l-1.2,0.2l-1.5,0.2l-1.3,0.1c0,0-1.2,0.1-1.3,0.2l-0.6,0.2l-1.3,0.2L25,65.2l-1.1,0.6
		c0,0-0.2,0.4,0.1,0.9l0.7,1l0.9,0.6l1.1,0.3l1,0.1l0.9,0l0.8-0.1l1-0.3l1.1-0.4l0.6-0.3l1.1-0.9l0.8-1l0.5-0.9l0.5-1.1L35.1,63.2z"
		/>
</g>
<g>
	<g>
		<path d="M58.4,21.8c4,0.5,4.4,0.9,4.9,4.9c0.5-4,0.9-4.4,4.9-4.9c-4-0.5-4.4-0.9-4.9-4.9C62.8,20.9,62.4,21.3,58.4,21.8z"/>
	</g>
	<g>
		<path class="st0" d="M63.2,26.7c-0.5-3.9-0.8-4.3-4.8-4.8l-0.8-0.1l0.8-0.1c3.9-0.5,4.3-0.8,4.8-4.8l0.1-0.8l0.1,0.8
			c0.5,3.9,0.8,4.3,4.8,4.8l0.8,0.1l-0.8,0.1c-3.9,0.5-4.3,0.8-4.8,4.8l-0.1,0.8L63.2,26.7z M63.3,17.7c-0.4,3.1-1,3.6-4.1,4.1
			c3.1,0.4,3.6,1,4.1,4.1c0.4-3.1,1-3.6,4.1-4.1C64.3,21.4,63.7,20.8,63.3,17.7z"/>
	</g>
</g>
<g>
	<g>
		<path d="M55.9,14.9c2.6,0.3,2.8,0.6,3.1,3.1c0.3-2.6,0.6-2.8,3.1-3.1c-2.6-0.3-2.8-0.6-3.1-3.1C58.7,14.3,58.4,14.6,55.9,14.9z"/>
	</g>
	<g>
		<path class="st0" d="M58.9,18c-0.3-2.5-0.5-2.7-3-3L55,14.9l0.8-0.1c2.5-0.3,2.7-0.5,3-3l0.1-0.8l0.1,0.8c0.3,2.5,0.5,2.7,3,3
			l0.8,0.1L62.1,15c-2.5,0.3-2.7,0.5-3,3L59,18.8L58.9,18z M59,12.5c-0.3,1.7-0.7,2.1-2.4,2.4c1.7,0.3,2.1,0.7,2.4,2.4
			c0.3-1.7,0.7-2.1,2.4-2.4C59.7,14.6,59.3,14.2,59,12.5z"/>
	</g>
</g>
<g>
	<g>
		<path d="M61.1,11.2c5.2,0.6,5.7,1.2,6.4,6.4c0.6-5.2,1.2-5.7,6.4-6.4c-5.2-0.6-5.7-1.2-6.4-6.4C66.8,10,66.3,10.5,61.1,11.2z"/>
	</g>
	<g>
		<path class="st0" d="M67.4,17.6c-0.6-5.2-1.1-5.6-6.3-6.3l-0.8-0.1l0.8-0.1c5.2-0.6,5.6-1.1,6.3-6.3L67.5,4l0.1,0.8
			c0.6,5.2,1.1,5.6,6.3,6.3l0.8,0.1l-0.8,0.1c-5.2,0.6-5.6,1.1-6.3,6.3l-0.1,0.8L67.4,17.6z M67.5,5.6c-0.6,4.3-1.3,5-5.6,5.6
			c4.3,0.6,5,1.3,5.6,5.6c0.6-4.3,1.3-5,5.6-5.6C68.8,10.6,68.1,9.9,67.5,5.6z"/>
	</g>
</g>
<g>
	<rect x="59" y="80.3" class="st0" width="2.9" height="0.5"/>
</g>
<g>
	<path d="M48.9,48.6c0.6,0,1,0,1.1,0l0-0.1c0,0-3.7,0.2-5.4-0.5l0,0c-1.8-0.3-6.6-1.1-6.9-1.7l-0.1,0.1c0.4,0.9,6.2,1.7,7,1.8
		C45.7,48.5,47.7,48.6,48.9,48.6z"/>
</g>
<g>
	<g>
		<g>
			<path d="M7.1,89.5c5.2,0.6,5.7,1.2,6.3,6.3c0.6-5.2,1.2-5.7,6.3-6.3c-5.2-0.6-5.7-1.2-6.3-6.3C12.8,88.3,12.3,88.9,7.1,89.5z"/>
		</g>
		<g>
			<path class="st0" d="M13.4,95.8c-0.6-5.1-1.1-5.6-6.2-6.2l-0.8-0.1l0.8-0.1c5.1-0.6,5.6-1.1,6.2-6.2l0.1-0.8l0.1,0.8
				c0.6,5.1,1.1,5.6,6.2,6.2l0.8,0.1l-0.8,0.1c-5.1,0.6-5.6,1.1-6.2,6.2l-0.1,0.8L13.4,95.8z M13.5,84c-0.6,4.3-1.3,5-5.5,5.5
				c4.3,0.6,5,1.3,5.5,5.5c0.6-4.3,1.3-5,5.5-5.5C14.8,88.9,14.1,88.2,13.5,84z"/>
		</g>
	</g>
	<g>
		<g>
			<path d="M3.8,80.5c3.3,0.4,3.7,0.7,4.1,4.1c0.4-3.3,0.7-3.7,4.1-4.1c-3.3-0.4-3.7-0.7-4.1-4.1C7.4,79.7,7.1,80.1,3.8,80.5z"/>
		</g>
		<g>
			<path class="st0" d="M7.8,84.6c-0.4-3.3-0.7-3.6-4-4l-0.8-0.1l0.8-0.1c3.3-0.4,3.6-0.7,4-4l0.1-0.8L8,76.4c0.4,3.3,0.7,3.6,4,4
				l0.8,0.1l-0.8,0.1c-3.3,0.4-3.6,0.7-4,4l-0.1,0.8L7.8,84.6z M7.9,77.2c-0.4,2.4-0.9,2.9-3.3,3.3c2.4,0.4,2.9,0.9,3.3,3.3
				c0.4-2.4,0.9-2.9,3.3-3.3C8.7,80.1,8.2,79.6,7.9,77.2z"/>
		</g>
	</g>
	<g>
		<g>
			<path d="M10.6,75.7c6.8,0.8,7.5,1.5,8.3,8.3c0.8-6.8,1.5-7.5,8.3-8.3c-6.8-0.8-7.5-1.5-8.3-8.3C18.1,74.1,17.4,74.8,10.6,75.7z"
				/>
		</g>
		<g>
			<path class="st0" d="M18.8,84c-0.8-6.8-1.5-7.4-8.2-8.2l-0.8-0.1l0.8-0.1c6.8-0.8,7.4-1.5,8.2-8.2l0.1-0.8l0.1,0.8
				c0.8,6.8,1.5,7.4,8.2,8.2l0.8,0.1l-0.8,0.1c-6.8,0.8-7.4,1.5-8.2,8.2l-0.1,0.8L18.8,84z M18.9,68.2c-0.8,5.8-1.6,6.7-7.5,7.5
				c5.8,0.8,6.7,1.6,7.5,7.5c0.8-5.8,1.6-6.7,7.5-7.5C20.6,74.9,19.7,74,18.9,68.2z"/>
		</g>
	</g>
</g>
</svg>
